<svg width="24" height="24" viewBox="0 0 24 24" fill="none" xmlns="http://www.w3.org/2000/svg">
<path d="M17.77 10.32C17 10 16.57 9.82 16.57 9.82L18 9.06C19.84 8.1 20.53 5.83 19.56 4C18.59 2.17 16.32 1.47 14.49 2.44L6 6.94C4.71 7.62 3.93 8.98 4 10.43C4.07 11.85 4.93 13.1 6.22 13.68C6.25 13.69 7.42 14.18 7.42 14.18L6 14.93C4.17 15.9 3.47 18.17 4.44 20C5.41 21.83 7.68 22.53 9.51 21.56L18.01 17.06C19.3 16.38 20.07 15.02 20 13.57C19.93 12.15 19.06 10.89 17.77 10.32V10.32ZM10 14.65V9.35L15 12L10 14.65Z" fill="black"/>
</svg>
