<svg width="24" height="24" viewBox="0 0 24 24" fill="none" xmlns="http://www.w3.org/2000/svg">
<path d="M10 9L15.2 12L10 15V9ZM13.22 3H10.78L10.23 5.2L10.1 5.71L9.61 5.9C9 6.12 8.42 6.45 7.88 6.88L7.48 7.2L6.98 7.06L4.82 6.44L3.6 8.56L5.23 10.15L5.6 10.51L5.52 11.02C5.47 11.34 5.44 11.67 5.44 12C5.44 12.33 5.47 12.66 5.52 12.98L5.6 13.49L5.23 13.85L3.6 15.44L4.82 17.55L6.99 16.93L7.49 16.79L7.89 17.11C8.42 17.55 9 17.88 9.61 18.1L10.11 18.28L10.24 18.79L10.79 20.99H13.23L13.78 18.79L13.91 18.28L14.41 18.1C15.02 17.87 15.6 17.54 16.13 17.12L16.53 16.8L17.03 16.94L19.2 17.56L20.42 15.45L18.79 13.86L18.42 13.5L18.5 12.99C18.55 12.67 18.58 12.35 18.58 12.01C18.58 11.67 18.55 11.35 18.5 11.03L18.42 10.52L18.79 10.16L20.42 8.57L19.2 6.46L17.03 7.08L16.53 7.22L16.13 6.9C15.58 6.45 15 6.12 14.39 5.9L13.89 5.72L13.77 5.2L13.22 3ZM14 2L14.74 4.96C15.47 5.23 16.14 5.62 16.74 6.1L19.66 5.27L21.66 8.73L19.47 10.86C19.53 11.23 19.56 11.61 19.56 12C19.56 12.39 19.53 12.77 19.47 13.14L21.66 15.27L19.66 18.73L16.74 17.9C16.14 18.38 15.47 18.77 14.74 19.04L14 22H10L9.26 19.04C8.53 18.77 7.86 18.38 7.26 17.9L4.34 18.73L2.34 15.27L4.53 13.14C4.47 12.77 4.44 12.39 4.44 12C4.44 11.61 4.47 11.23 4.53 10.86L2.34 8.73L4.34 5.27L7.26 6.1C7.86 5.62 8.53 5.23 9.26 4.96L10 2H14Z" fill="black"/>
</svg>
