<svg width="24" height="24" viewBox="0 0 24 24" fill="currentColor" xmlns="http://www.w3.org/2000/svg">
<path d="M12 3.05999L19 6.26999V11.11C19 12.41 18.75 13.71 18.25 14.97C18.1 15.34 17.92 15.73 17.7 16.14C17.55 16.41 17.39 16.68 17.22 16.95C15.9 18.96 14.05 20.37 11.99 20.93C9.93 20.37 8.08 18.96 6.76 16.95C6.59 16.68 6.43 16.41 6.28 16.14C6.06 15.73 5.88 15.35 5.73 14.97C5.25 13.71 5 12.41 5 11.11V6.26999L12 3.05999ZM12 1.95999L4 5.62999V11.12C4 12.59 4.3 14.02 4.81 15.34C4.98 15.78 5.18 16.2 5.41 16.62C5.57 16.92 5.75 17.22 5.93 17.5C7.35 19.67 9.45 21.32 11.88 21.94L12 21.96L12.12 21.93C14.55 21.32 16.65 19.67 18.07 17.5C18.26 17.21 18.43 16.92 18.59 16.62C18.81 16.21 19.02 15.78 19.19 15.34C19.7 14.01 20 12.58 20 11.11V5.62999L12 1.95999ZM13.08 12.11C12.76 12.05 12.44 12 12.12 11.99C13.72 11.92 15 10.62 15 8.99999C15 7.33999 13.66 5.99999 12 5.99999C10.34 5.99999 9 7.33999 9 8.99999C9 10.62 10.28 11.92 11.88 11.99C11.56 12 11.24 12.05 10.92 12.11C8.64 12.58 7 14.62 7 17H17C17 14.62 15.36 12.58 13.08 12.11ZM10 8.99999C10 7.89999 10.9 6.99999 12 6.99999C13.1 6.99999 14 7.89999 14 8.99999C14 10.1 13.1 11 12 11C10.9 11 10 10.1 10 8.99999ZM11.12 13.09C11.49 13.01 11.76 12.98 12 12.98C12.24 12.98 12.51 13.01 12.88 13.09C14.36 13.39 15.51 14.55 15.88 16H8.12C8.49 14.55 9.64 13.39 11.12 13.09Z" fill="currentColor"/>
</svg>
