<svg width="24" height="24" viewBox="0 0 24 24" fill="currentColor" xmlns="http://www.w3.org/2000/svg">
<path d="M12 3C16.96 3 21 7.04 21 12C21 16.96 16.96 21 12 21C7.04 21 3 16.96 3 12C3 7.04 7.04 3 12 3ZM12 2C6.48 2 2 6.48 2 12C2 17.52 6.48 22 12 22C17.52 22 22 17.52 22 12C22 6.48 17.52 2 12 2ZM12.45 10.95C11.78 10.73 11.27 10.48 10.93 10.23C10.59 9.97 10.41 9.66 10.41 9.28C10.41 8.87 10.56 8.55 10.85 8.3C11.14 8.05 11.56 7.93 12.09 7.93C12.64 7.93 13.32 8.08 13.62 8.37C13.8 8.53 13.93 8.75 14 9H16C15.93 8.54 15.74 8.12 15.51 7.73C15.18 7.18 14.73 6.75 14.14 6.45C13.79 6.27 13.41 6.17 13 6.09V5H11V6.12C10.69 6.19 10.38 6.28 10.1 6.41C9.5 6.7 9.04 7.08 8.72 7.58C8.4 8.07 8.24 8.63 8.24 9.26C8.24 10.47 8.84 11.44 10.04 12.16C10.48 12.42 11.08 12.69 11.83 12.96C12.58 13.23 13.1 13.49 13.39 13.73C13.68 13.97 13.82 14.32 13.82 14.78C13.82 15.2 13.68 15.52 13.39 15.75C13.1 15.98 12.7 16.1 12.18 16.1C11.13 16.1 10.26 15.73 10 15H8C8.08 15.42 8.22 15.81 8.44 16.16C8.79 16.73 9.3 17.18 9.96 17.51C10.29 17.67 10.63 17.79 11 17.88V19H13V17.95C13.79 17.84 14.45 17.57 14.97 17.14C15.66 16.57 16 15.77 16 14.76C16 13.85 15.72 13.09 15.15 12.48C14.58 11.87 13.69 11.36 12.45 10.95Z" fill="currentColor"/>
</svg>
