<svg width="24" height="24" viewBox="0 0 24 24" fill="currentColor" xmlns="http://www.w3.org/2000/svg">
<path d="M12.26 16.18L9.33 13.31C8.53 14.17 7.69 15.02 6.85 15.85L4.6 18.1L3.9 17.4L6.15 15.15C6.99 14.31 7.83 13.46 8.63 12.6C7.45 11.37 6.46 9.96 5.73 8.42V8.4H6.87C7.52 9.66 8.34 10.83 9.31 11.85C10.9 10.04 12.2 8.16 12.74 6.15H2.08V5.15H8.73V3H9.73V5.15H16.51V6.15H13.78C13.24 8.47 11.77 10.57 10.01 12.57L12.64 15.15C12.51 15.5 12.39 15.82 12.26 16.18ZM21.51 21.01H20.56L19.44 17.97H14.53L13.42 21.01H12.46L16.55 10.2H17.42L21.51 21.01ZM19.15 17.2L16.98 11.31L14.81 17.2H19.15Z" fill="currentColor"/>
</svg>
